<svg width="1024" height="1024" viewBox="0 0 1024 1024" fill="none" xmlns="http://www.w3.org/2000/svg">
<path d="M512 1024C795.253 1024 1024 795.253 1024 512C1024 228.747 795.253 0 512 0C228.747 0 0 228.747 0 512C0 795.253 228.747 1024 512 1024Z" fill="url(#paint0_linear_1_2)"/>
<path d="M512 896C722.43 896 896 722.43 896 512C896 301.57 722.43 128 512 128C301.57 128 128 301.57 128 512C128 722.43 301.57 896 512 896Z" fill="url(#paint1_linear_1_2)"/>
<path d="M512 768C653.457 768 768 653.457 768 512C768 370.543 653.457 256 512 256C370.543 256 256 370.543 256 512C256 653.457 370.543 768 512 768Z" fill="url(#paint2_linear_1_2)"/>
<path d="M512 640C582.823 640 640 582.823 640 512C640 441.177 582.823 384 512 384C441.177 384 384 441.177 384 512C384 582.823 441.177 640 512 640Z" fill="url(#paint3_linear_1_2)"/>
<path d="M832 192L512 512L192 832" stroke="url(#paint4_linear_1_2)" stroke-width="128" stroke-linecap="round" stroke-linejoin="round"/>
<defs>
<linearGradient id="paint0_linear_1_2" x1="512" y1="0" x2="512" y2="1024" gradientUnits="userSpaceOnUse">
<stop stop-color="#A8E063"/>
<stop offset="1" stop-color="#56AB2F"/>
</linearGradient>
<linearGradient id="paint1_linear_1_2" x1="512" y1="128" x2="512" y2="896" gradientUnits="userSpaceOnUse">
<stop stop-color="#A8E063"/>
<stop offset="1" stop-color="#56AB2F"/>
</linearGradient>
<linearGradient id="paint2_linear_1_2" x1="512" y1="256" x2="512" y2="768" gradientUnits="userSpaceOnUse">
<stop stop-color="#A8E063"/>
<stop offset="1" stop-color="#56AB2F"/>
</linearGradient>
<linearGradient id="paint3_linear_1_2" x1="512" y1="384" x2="512" y2="640" gradientUnits="userSpaceOnUse">
<stop stop-color="#A8E063"/>
<stop offset="1" stop-color="#56AB2F"/>
</linearGradient>
<linearGradient id="paint4_linear_1_2" x1="512" y1="192" x2="512" y2="832" gradientUnits="userSpaceOnUse">
<stop stop-color="#A8E063"/>
<stop offset="1" stop-color="#56AB2F"/>
</linearGradient>
</defs>
</svg>